# xmcd CD database file
#
# Track frame offsets:
#	150
#	12510
#	24805
#	37290
#	46930
#	54130
#	67995
#	76515
#	86227
#	99167
#	108995
#	125135
#	135445
#	142535
#	149325
#	162657
#	175205
#	182037
#
# Disc length: 2572 seconds
#
# Revision: 1
# Processed by: cddbd v1.5.2PL0 Copyright (c) Steve Scherf et al.
# Submitted via: CDex 1.51
#
DISCID=e50a0a12
DTITLE=Nat King Cole - The Unforgettable
DYEAR=1998
DGENRE=Oldies
TTITLE0=Mona Lisa
TTITLE1=Autumn Leaves
TTITLE2=Unforgettable
TTITLE3=It's Only a Papper Moon
TTITLE4=When You're Smiling
TTITLE5=Darling, Je Vous Aime Beaucoup
TTITLE6=Crazy Rhythm
TTITLE7=To The Ends Of The Earth
TTITLE8=Route 66
TTITLE9=Somebody Loves Me
TTITLE10=The End Of A Beutiful Friendship
TTITLE11=It's Crizy But I'm In Love
TTITLE12=You Stepped Out Of A Dream
TTITLE13=I'm Shooting High
TTITLE14=I'll See You In Cuba
TTITLE15=The Sand And The Sea
TTITLE16=Thou Swell
TTITLE17=Early American
EXTD=YEAR: 1998
EXTT0=
EXTT1=
EXTT2=
EXTT3=
EXTT4=
EXTT5=
EXTT6=
EXTT7=
EXTT8=
EXTT9=
EXTT10=
EXTT11=
EXTT12=
EXTT13=
EXTT14=
EXTT15=
EXTT16=
EXTT17=
PLAYORDER=
